HIERARCHY
ROOT Hips
{
	OFFSET -3.958830 18.904000 13.208200
	CHANNELS 6 Xposition Yposition Zposition Zrotation Yrotation Xrotation 
	JOINT LHipJoint
	{
		OFFSET 0.000000 0.000000 0.000000
		CHANNELS 3 Zrotation Yrotation Xrotation
		JOINT LeftUpLeg
		{
			OFFSET 1.800000 -1.400000 0.085000
			CHANNELS 3 Zrotation Yrotation Xrotation
			JOINT LeftLeg
			{
				OFFSET 2.215000 -6.000000 0.000000
				CHANNELS 3 Zrotation Yrotation Xrotation
				JOINT LeftFoot
				{
					OFFSET 2.500000 -6.900000 0.000000
					CHANNELS 3 Zrotation Yrotation Xrotation
					JOINT LeftToeBase
					{
						OFFSET 0.200000 -0.500000 1.950000
						CHANNELS 3 Zrotation Yrotation Xrotation
						End Site
						{
							OFFSET 0.000000 0.000000 0.000000
						}
					}
				}
			}
		}
	}
	JOINT RHipJoint
	{
		OFFSET 0.000000 0.000000 0.000000
		CHANNELS 3 Zrotation Yrotation Xrotation
		JOINT RightUpLeg
		{
			OFFSET -1.800000 -1.400000 0.085000
			CHANNELS 3 Zrotation Yrotation Xrotation
			JOINT RightLeg
			{
				OFFSET -2.215000 -6.000000 0.000000
				CHANNELS 3 Zrotation Yrotation Xrotation
				JOINT RightFoot
				{
					OFFSET -2.500000 -6.900000 0.000000
					CHANNELS 3 Zrotation Yrotation Xrotation
					JOINT RightToeBase
					{
						OFFSET -0.200000 -0.500000 1.950000
						CHANNELS 3 Zrotation Yrotation Xrotation
						End Site
						{
							OFFSET 0.000000 0.000000 0.000000
						}
					}
				}
			}
		}
	}
	JOINT LowerBack
	{
		OFFSET 0.000000 0.000000 0.000000
		CHANNELS 3 Zrotation Yrotation Xrotation
		JOINT Spine
		{
			OFFSET -0.087000 1.940000 -0.288900
			CHANNELS 3 Zrotation Yrotation Xrotation
			JOINT Spine1
			{
				OFFSET 0.000000 1.950000 0.060000
				CHANNELS 3 Zrotation Yrotation Xrotation
				JOINT Neck
				{
					OFFSET 0.000000 0.000000 0.000000
					CHANNELS 3 Zrotation Yrotation Xrotation
					JOINT Neck1
					{
						OFFSET 0.000000 1.600000 0.340000
						CHANNELS 3 Zrotation Yrotation Xrotation
						JOINT Head
						{
							OFFSET 0.000000 1.667000 -0.240000
							CHANNELS 3 Zrotation Yrotation Xrotation
							End Site
							{
								OFFSET 0.000000 0.000000 0.000000
							}
						}
					}
				}
				JOINT LeftShoulder
				{
					OFFSET 0.000000 0.000000 0.000000
					CHANNELS 3 Zrotation Yrotation Xrotation
					JOINT LeftArm
					{
						OFFSET 2.700000 1.550000 -0.730000
						CHANNELS 3 Zrotation Yrotation Xrotation
						JOINT LeftForeArm
						{
							OFFSET 5.450000 0.000000 0.000000
							CHANNELS 3 Zrotation Yrotation Xrotation
							JOINT LeftHand
							{
								OFFSET 3.450000 0.000000 0.000000
								CHANNELS 3 Zrotation Yrotation Xrotation
								JOINT LeftHandIndex1
								{
									OFFSET 0.750000 0.000000 0.000000
									CHANNELS 3 Zrotation Yrotation Xrotation
									End Site
									{
										OFFSET 0.000000 0.000000 0.000000
									}
								}
							}
						}
					}
				}
				JOINT RightShoulder
				{
					OFFSET 0.000000 0.000000 0.000000
					CHANNELS 3 Zrotation Yrotation Xrotation
					JOINT RightArm
					{
						OFFSET -2.700000 1.550000 -0.730000
						CHANNELS 3 Zrotation Yrotation Xrotation
						JOINT RightForeArm
						{
							OFFSET -5.450000 0.000000 0.000000
							CHANNELS 3 Zrotation Yrotation Xrotation
							JOINT RightHand
							{
								OFFSET -3.450000 0.000000 0.000000
								CHANNELS 3 Zrotation Yrotation Xrotation
								JOINT RightHandIndex1
								{
									OFFSET -0.750000 0.000000 0.000000
									CHANNELS 3 Zrotation Yrotation Xrotation
									End Site
									{
										OFFSET 0.000000 0.000000 0.000000
									}
								}
							}
						}
					}
				}
			}
		}
	}
}
MOTION
Frames: 7
Frame Time: 0.016667
5.058530 17.055140 -3.653800 2.233646 19.929625 -4.778394 -15.099405 12.294892 2.962391 3.031697 -1.371136 -11.040709 -14.996209 13.027233 30.645759 -0.069496 7.783640 2.051823 0.394650 -0.035210 0.155240 18.336624 -11.476431 3.170962 1.286077 2.190013 -10.981425 11.570753 -6.432721 15.483644 -0.475375 -4.206546 2.906829 0.095190 0.674520 0.503390 -4.206693 1.278901 -7.939764 4.178711 1.852412 17.567656 0.830345 2.848155 17.184697 -1.361343 2.496264 -15.875856 6.268632 -5.279395 31.756886 4.359590 -7.233960 -12.096740 -5.058698 -22.610024 10.499771 -23.846108 2.397516 -2.199622 18.289445 -7.354928 -1.952645 -4.022812 2.852713 0.739690 0.249750 -0.014160 0.369120 8.666414 27.093422 10.338924 37.124223 27.816185 -13.516280 -6.504590 58.013008 -8.891811 1.429469 -1.571275 -0.345590 0.371560 0.097860 -0.031920 
5.047380 17.072180 -3.650830 2.232355 19.796544 -4.561408 -15.101834 12.311647 2.924999 2.496086 -1.337941 -10.832038 -14.259340 12.447116 29.925924 -0.121022 7.553092 2.143604 0.369590 -0.062310 0.132150 18.335902 -11.500337 3.172613 1.239584 2.062288 -11.012171 11.379324 -6.314104 14.878202 -0.446610 -4.171457 2.925315 0.085880 0.704070 0.510410 -4.199691 1.297211 -7.887549 3.857084 1.923355 17.142879 1.127397 2.751150 17.093674 -1.479237 2.618517 -15.736903 6.491846 -5.116754 31.376503 4.043730 -7.084710 -11.203330 -4.889357 -22.301040 10.354789 -23.913286 2.250091 -2.126461 17.942472 -7.431145 -1.929282 -4.058566 2.849228 0.715910 0.278100 -0.038410 0.368200 8.742696 26.650545 10.226685 37.364214 27.526886 -13.377752 -7.122798 58.186175 -9.228295 1.431735 -1.569530 -0.351750 0.369660 0.114050 -0.026030 
5.027610 17.109140 -3.644850 2.057920 19.540907 -4.126258 -15.096607 12.312060 2.853273 1.595774 -1.268563 -10.456843 -12.968184 11.367908 28.369745 -0.227398 7.108245 2.320498 0.333250 -0.097310 0.099020 18.351469 -11.545728 3.181057 1.439757 1.793316 -11.049903 10.773721 -6.000394 13.468138 -0.391191 -4.077001 2.972625 0.082280 0.755330 0.519410 -4.223058 1.387635 -7.782672 3.509198 1.942299 16.189774 1.497077 2.478206 16.889739 -1.584748 2.945184 -15.358713 7.080972 -4.664317 30.444778 3.238920 -6.489890 -9.670580 -4.269932 -21.499769 9.990947 -23.996673 1.796093 -1.878291 16.661830 -7.543377 -1.830489 -4.130663 2.827522 0.671410 0.333750 -0.081670 0.369220 8.350692 25.477454 9.867747 38.471719 27.375425 -12.714944 -8.807867 58.249241 -10.078393 1.436622 -1.555907 -0.367380 0.370450 0.135610 -0.019340 
5.006450 17.144250 -3.633430 2.033626 18.994031 -3.209224 -15.093885 12.293275 2.797155 0.348527 -1.192383 -10.132609 -11.557124 10.119674 26.218366 -0.352987 6.557646 2.534234 0.290700 -0.134130 0.063260 18.367531 -11.589978 3.175254 1.392651 1.580342 -11.531358 10.116501 -5.663297 11.999911 -0.325623 -3.964107 3.018051 0.077850 0.806760 0.533600 -4.230792 1.504873 -7.641835 2.747590 1.948331 14.744471 1.818284 2.070807 16.118513 -1.561627 3.399557 -14.756580 7.858845 -3.958505 29.347882 2.170560 -5.454150 -8.055660 -3.431565 -20.057267 9.379400 -24.565362 1.465404 -1.770909 15.874214 -7.653557 -1.738170 -4.218289 2.816013 0.621990 0.396740 -0.126120 0.364260 7.441670 23.492971 9.226841 40.959742 27.672238 -10.975710 -10.102574 57.960328 -10.541654 1.456409 -1.535516 -0.382030 0.363330 0.162120 -0.014610 
4.980680 17.180910 -3.624790 2.008528 18.169323 -2.274957 -15.106069 12.277722 2.764172 -0.759060 -1.069791 -9.653195 -10.371758 8.934000 23.572725 -0.481845 6.016052 2.745118 0.273660 -0.160020 0.065190 18.367553 -11.595342 3.175552 1.007882 1.393792 -11.929331 9.913739 -5.380991 10.159819 -0.285108 -3.864633 3.055082 0.075860 0.835810 0.553390 -4.182302 1.556228 -7.520832 1.730138 2.028729 13.486702 2.390306 1.695827 14.963328 -1.430328 3.835763 -14.089948 8.610435 -3.265913 28.675831 1.113780 -4.258800 -7.134180 -3.080974 -18.247908 8.578172 -25.010083 1.230550 -1.713170 15.496715 -7.904093 -1.697924 -4.286177 2.800766 0.602790 0.441890 -0.149120 0.358390 6.831882 21.228768 8.504130 43.201987 27.848018 -9.065820 -10.339135 57.709141 -10.329034 1.473144 -1.519435 -0.395290 0.356400 0.175560 -0.025700 
4.947080 17.216010 -3.620280 1.861177 17.003653 -1.313500 -15.115915 12.259453 2.748241 -1.636687 -0.899471 -9.034836 -9.335397 7.769462 20.295841 -0.593865 5.460651 2.965474 0.266450 -0.169040 0.083220 18.369592 -11.576158 3.179827 0.571404 1.302847 -12.483486 9.874918 -5.128871 8.521739 -0.254676 -3.770293 3.089273 0.078150 0.849960 0.562460 -4.132243 1.572922 -7.425030 0.862961 2.042551 12.290410 2.867522 1.323354 13.814424 -1.272923 4.166441 -13.540305 9.158551 -2.478734 28.124427 0.163750 -2.908570 -6.522270 -2.961060 -16.570975 7.949322 -25.056614 1.393855 -1.622501 14.845459 -7.864304 -1.593064 -4.338375 2.775588 0.585960 0.474220 -0.159750 0.352550 6.376170 19.132019 7.832299 45.100826 28.049167 -7.233637 -10.263195 57.369034 -9.904309 1.494745 -1.507043 -0.404650 0.352920 0.173020 -0.036800 
4.913970 17.254480 -3.629530 0.854668 15.789489 -1.028150 -15.083414 12.253647 2.715235 -1.446514 -0.751156 -8.360395 -8.392126 6.783435 17.180868 -0.675966 5.027867 3.142748 0.268770 -0.182040 0.106120 18.401138 -11.570970 3.236438 0.475892 1.253485 -12.537995 10.112478 -4.957098 6.939803 -0.257085 -3.730952 3.104167 0.069770 0.853230 0.577680 -4.200317 1.617465 -7.438766 1.857877 1.666808 11.817680 2.710561 0.902166 13.118273 -1.158528 3.970297 -13.315745 8.778373 -1.607940 27.939605 -0.404830 -1.873110 -6.275950 -2.888929 -15.699047 7.768448 -25.552287 2.189606 -1.804480 14.953711 -7.894094 -1.562913 -4.352474 2.779428 0.591480 0.484940 -0.156080 0.355230 5.992357 18.112641 7.508661 45.392169 27.834237 -6.534059 -10.343047 57.191877 -9.647347 1.506500 -1.506217 -0.408460 0.342610 0.163150 -0.046270 
